<svg xmlns="http://www.w3.org/2000/svg" version="1.1" xmlns:xlink="http://www.w3.org/1999/xlink" xmlns:svgjs="http://svgjs.dev/svgjs" width="1440" height="1400" preserveAspectRatio="none" viewBox="0 0 1440 1400"><g mask="url(&quot;#SvgjsMask1079&quot;)" fill="none"><rect width="1440" height="1400" x="0" y="0" fill="rgba(149, 216, 233, 1)"></rect><path d="M1034 1365L1033 1775" stroke-width="10" stroke="url(&quot;#SvgjsLinearGradient1080&quot;)" stroke-linecap="round" class="Down"></path><path d="M734 949L733 294" stroke-width="6" stroke="url(&quot;#SvgjsLinearGradient1080&quot;)" stroke-linecap="round" class="Down"></path><path d="M160 1285L159 1650" stroke-width="6" stroke="url(&quot;#SvgjsLinearGradient1081&quot;)" stroke-linecap="round" class="Up"></path><path d="M1032 1032L1031 1528" stroke-width="8" stroke="url(&quot;#SvgjsLinearGradient1080&quot;)" stroke-linecap="round" class="Down"></path><path d="M238 854L237 1227" stroke-width="10" stroke="url(&quot;#SvgjsLinearGradient1080&quot;)" stroke-linecap="round" class="Down"></path><path d="M1040 172L1039 741" stroke-width="10" stroke="url(&quot;#SvgjsLinearGradient1081&quot;)" stroke-linecap="round" class="Up"></path><path d="M1275 604L1274 1631" stroke-width="8" stroke="url(&quot;#SvgjsLinearGradient1080&quot;)" stroke-linecap="round" class="Down"></path><path d="M282 37L281 -476" stroke-width="10" stroke="url(&quot;#SvgjsLinearGradient1081&quot;)" stroke-linecap="round" class="Up"></path><path d="M1389 979L1388 90" stroke-width="6" stroke="url(&quot;#SvgjsLinearGradient1080&quot;)" stroke-linecap="round" class="Down"></path><path d="M1151 262L1150 -244" stroke-width="8" stroke="url(&quot;#SvgjsLinearGradient1080&quot;)" stroke-linecap="round" class="Down"></path><path d="M703 1374L702 1968" stroke-width="6" stroke="url(&quot;#SvgjsLinearGradient1081&quot;)" stroke-linecap="round" class="Up"></path><path d="M1205 1377L1204 346" stroke-width="10" stroke="url(&quot;#SvgjsLinearGradient1081&quot;)" stroke-linecap="round" class="Up"></path><path d="M262 32L261 -804" stroke-width="10" stroke="url(&quot;#SvgjsLinearGradient1081&quot;)" stroke-linecap="round" class="Up"></path><path d="M479 374L478 1114" stroke-width="10" stroke="url(&quot;#SvgjsLinearGradient1081&quot;)" stroke-linecap="round" class="Up"></path><path d="M1380 285L1379 1081" stroke-width="8" stroke="url(&quot;#SvgjsLinearGradient1081&quot;)" stroke-linecap="round" class="Up"></path><path d="M229 914L228 12" stroke-width="8" stroke="url(&quot;#SvgjsLinearGradient1081&quot;)" stroke-linecap="round" class="Up"></path><path d="M278 1382L277 2373" stroke-width="8" stroke="url(&quot;#SvgjsLinearGradient1080&quot;)" stroke-linecap="round" class="Down"></path><path d="M1120 580L1119 1133" stroke-width="8" stroke="url(&quot;#SvgjsLinearGradient1081&quot;)" stroke-linecap="round" class="Up"></path><path d="M614 412L613 990" stroke-width="10" stroke="url(&quot;#SvgjsLinearGradient1081&quot;)" stroke-linecap="round" class="Up"></path><path d="M437 375L436 934" stroke-width="10" stroke="url(&quot;#SvgjsLinearGradient1080&quot;)" stroke-linecap="round" class="Down"></path><path d="M603 271L602 -458" stroke-width="8" stroke="url(&quot;#SvgjsLinearGradient1080&quot;)" stroke-linecap="round" class="Down"></path><path d="M1226 913L1225 1442" stroke-width="6" stroke="url(&quot;#SvgjsLinearGradient1081&quot;)" stroke-linecap="round" class="Up"></path><path d="M213 532L212 1351" stroke-width="6" stroke="url(&quot;#SvgjsLinearGradient1081&quot;)" stroke-linecap="round" class="Up"></path><path d="M840 403L839 -441" stroke-width="8" stroke="url(&quot;#SvgjsLinearGradient1080&quot;)" stroke-linecap="round" class="Down"></path><path d="M743 1319L742 1691" stroke-width="8" stroke="url(&quot;#SvgjsLinearGradient1081&quot;)" stroke-linecap="round" class="Up"></path><path d="M156 619L155 1536" stroke-width="6" stroke="url(&quot;#SvgjsLinearGradient1081&quot;)" stroke-linecap="round" class="Up"></path><path d="M1311 570L1310 -64" stroke-width="8" stroke="url(&quot;#SvgjsLinearGradient1080&quot;)" stroke-linecap="round" class="Down"></path><path d="M1049 1078L1048 634" stroke-width="8" stroke="url(&quot;#SvgjsLinearGradient1081&quot;)" stroke-linecap="round" class="Up"></path><path d="M38 1302L37 2219" stroke-width="10" stroke="url(&quot;#SvgjsLinearGradient1081&quot;)" stroke-linecap="round" class="Up"></path><path d="M918 1128L917 1626" stroke-width="10" stroke="url(&quot;#SvgjsLinearGradient1080&quot;)" stroke-linecap="round" class="Down"></path><path d="M234 1291L233 832" stroke-width="10" stroke="url(&quot;#SvgjsLinearGradient1081&quot;)" stroke-linecap="round" class="Up"></path><path d="M1099 366L1098 -362" stroke-width="8" stroke="url(&quot;#SvgjsLinearGradient1080&quot;)" stroke-linecap="round" class="Down"></path><path d="M1200 75L1199 901" stroke-width="10" stroke="url(&quot;#SvgjsLinearGradient1081&quot;)" stroke-linecap="round" class="Up"></path><path d="M352 1399L351 2076" stroke-width="6" stroke="url(&quot;#SvgjsLinearGradient1080&quot;)" stroke-linecap="round" class="Down"></path><path d="M233 308L232 683" stroke-width="10" stroke="url(&quot;#SvgjsLinearGradient1080&quot;)" stroke-linecap="round" class="Down"></path><path d="M777 1332L776 811" stroke-width="10" stroke="url(&quot;#SvgjsLinearGradient1080&quot;)" stroke-linecap="round" class="Down"></path></g><defs><mask id="SvgjsMask1079"><rect width="1440" height="1400" fill="#ffffff"></rect></mask><linearGradient x1="0%" y1="0%" x2="0%" y2="100%" id="SvgjsLinearGradient1080"><stop stop-color="rgba(93, 164, 219, 0)" offset="0"></stop><stop stop-color="rgba(93, 164, 219, 1)" offset="1"></stop></linearGradient><linearGradient x1="0%" y1="100%" x2="0%" y2="0%" id="SvgjsLinearGradient1081"><stop stop-color="rgba(93, 164, 219, 0)" offset="0"></stop><stop stop-color="rgba(93, 164, 219, 1)" offset="1"></stop></linearGradient></defs></svg>